<svg width="32" height="32" viewBox="0 0 32 32" fill="none" xmlns="http://www.w3.org/2000/svg">
<path d="M25.85 5.52661V5.39994V4.86002C25.8498 4.49162 25.7713 4.12747 25.6197 3.7917C25.4682 3.456 25.247 3.15634 24.9709 2.91255C24.6889 2.66506 24.3575 2.48051 23.9985 2.37121C23.6396 2.26189 23.2614 2.23035 22.8893 2.27869L22.8877 2.2789C20.3052 2.58499 17.9091 3.77783 16.1082 5.65382L16 5.76654L15.8918 5.65382C14.0909 3.77783 11.6948 2.58499 9.11235 2.27889L9.11068 2.2787C8.73857 2.23035 8.36042 2.26189 8.00146 2.37121C7.64255 2.48051 7.31106 2.66506 7.02909 2.91255C6.753 3.15634 6.53185 3.456 6.3803 3.7917C6.22871 4.12747 6.15021 4.49162 6.15 4.86002V5.39994V5.52661L6.02512 5.54782C5.84452 5.57849 5.66592 5.60656 5.48837 5.63447C5.13731 5.68965 4.7904 5.74418 4.44049 5.81681L4.4395 5.81701L4.4395 5.81701C3.79401 5.94648 3.21326 6.29543 2.7959 6.80458C2.37855 7.31371 2.15033 7.95162 2.15 8.60994V25.5499V25.5511H2.15C2.14678 25.9559 2.22984 26.3568 2.39365 26.727C2.55732 27.0969 2.79785 27.4277 3.09924 27.6975C3.40482 27.9632 3.76352 28.1607 4.15145 28.2769C4.5397 28.3932 4.9483 28.4254 5.34997 28.3713C8.84409 27.9003 12.4005 28.3879 15.6389 29.782C15.7437 29.8263 15.8563 29.8491 15.97 29.8491C16.0837 29.8491 16.1963 29.8263 16.3011 29.782C16.3012 29.7819 16.3014 29.7819 16.3015 29.7818L16.36 29.9199M25.85 5.52661L26.57 28.5199C23.1027 28.0526 19.5735 28.5365 16.36 29.9199M25.85 5.52661L25.9749 5.54782C26.1555 5.57849 26.3341 5.60656 26.5116 5.63447C26.8626 5.68964 27.2095 5.74416 27.5593 5.81677L25.85 5.52661ZM16.36 29.9199C16.2366 29.9722 16.104 29.9991 15.97 29.9991C15.836 29.9991 15.7034 29.9722 15.58 29.9199C12.3665 28.5365 8.83732 28.0526 5.37 28.5199M16.36 29.9199L5.37 28.5199M5.37 28.5199C4.94719 28.5769 4.51709 28.5431 4.1084 28.4206C3.69972 28.2982 3.32184 28.09 3 27.8099C2.68237 27.5259 2.4289 27.1774 2.25648 26.7877C2.08405 26.398 1.99662 25.9761 2 25.5499L5.37 28.5199ZM24.15 4.86013C24.1502 4.73331 24.1235 4.60788 24.0718 4.49207C24.0201 4.37626 23.9445 4.27268 23.85 4.18813L23.8496 4.18777C23.7498 4.0992 23.6322 4.03313 23.5046 3.99404C23.3773 3.95502 23.2431 3.9438 23.1111 3.96114C20.6916 4.25844 18.471 5.45035 16.886 7.30241L16.85 7.34452V7.39994V26.2899V26.6399L17.1034 26.3986C18.7991 24.7841 20.9373 23.7116 23.2452 23.3178L23.2453 23.318L23.253 23.3163C23.5124 23.2579 23.7435 23.1113 23.9071 22.9017C24.0702 22.6925 24.1561 22.4333 24.15 22.1681V4.86013ZM24.15 4.86013L24 4.85994M24.15 4.86013V4.85994H24M24 4.85994C24.0001 4.75425 23.9779 4.64972 23.9349 4.55322C23.8918 4.45671 23.8288 4.3704 23.75 4.29994L24 4.85994ZM5.13 26.5399L5.14951 26.6887C4.98643 26.7101 4.82067 26.6962 4.6634 26.6481C4.50613 26.5999 4.36101 26.5186 4.23784 26.4096C4.11467 26.3006 4.01632 26.1665 3.94941 26.0162C3.8826 25.8662 3.8487 25.7036 3.85 25.5393M5.13 26.5399L4 8.60994M5.13 26.5399L5.15021 26.6886C7.59489 26.3563 10.0792 26.4605 12.4874 26.9964L12.6084 26.7287C11.3833 25.8355 9.96996 25.2347 8.47673 24.9723C7.82295 24.8502 7.23246 24.5033 6.80753 23.9917C6.38243 23.4798 6.14982 22.8353 6.15 22.17V22.1699V7.40994V7.23576L5.97775 7.2616L5.97604 7.26185C5.57718 7.32168 5.17416 7.38213 4.77059 7.46285L4.77003 7.46296C4.50637 7.51673 4.2699 7.66125 4.1018 7.87138C3.93403 8.08109 3.84495 8.34291 3.85 8.6114M5.13 26.5399L4 8.60994M3.85 25.5393C3.85001 25.5391 3.85001 25.5389 3.85001 25.5387L4 25.5399H3.85V25.5393ZM3.85 25.5393V8.6114M3.85 8.6114C3.85001 8.61192 3.85002 8.61244 3.85003 8.61296L4 8.60994M3.85 8.6114V8.60994H4M8.45 25.1199C7.76149 24.9915 7.13961 24.6263 6.69214 24.0875C6.24466 23.5487 5.99981 22.8703 6 22.1699V7.56162C6.00742 7.5605 6.01484 7.55939 6.02225 7.55828L6 7.40994H5.85V7.43248C5.5 7.48525 5.15 7.53994 4.8 7.60994L8.45 25.1199ZM8.45 25.1199C9.79429 25.356 11.0728 25.8706 12.2042 26.6291M8.45 25.1199L12.2042 26.6291M12.2042 26.6291C12.3205 26.6529 12.4366 26.6777 12.5526 26.7035L12.52 26.8499L12.4316 26.9711C12.3373 26.9023 12.2417 26.8353 12.1451 26.7701L12.2042 26.6291ZM29.97 25.5199V8.60994V25.5199ZM7.85002 4.858L7.85 4.858V4.85994V22.1482C7.84396 22.4133 7.92977 22.6725 8.09293 22.8817C8.25647 23.0913 8.48763 23.2379 8.74705 23.2963L8.74701 23.2965L8.75445 23.2977C11.0646 23.6971 13.2031 24.7766 14.8962 26.3983L15.15 26.6413V26.2899V7.39994V7.34465L15.1141 7.30258C13.5307 5.44658 11.3096 4.25088 8.88844 3.95107L8.87925 3.94994H8.87H8.76V3.94992L8.75807 3.94995C8.5182 3.95305 8.28903 4.04971 8.1194 4.21934C7.94977 4.38896 7.85311 4.61813 7.85002 4.858ZM26.8498 26.6886L26.8505 26.6887L28 25.5399H28.15V25.5394V8.63159C28.1556 8.36475 28.0681 8.10427 27.9026 7.89481C27.7368 7.68491 27.503 7.53938 27.2415 7.48327L27.2415 7.48325L27.2387 7.48271C26.8255 7.40208 26.4228 7.34167 26.0237 7.28181L26.0223 7.2816L25.85 7.25576V7.42994V22.1699V22.17C25.8502 22.8353 25.6176 23.4798 25.1925 23.9917C24.7676 24.5033 24.1771 24.8502 23.5234 24.9723C22.0301 25.2347 20.6167 25.8355 19.3916 26.7287L19.5126 26.9964C21.9209 26.4605 24.4051 26.3563 26.8498 26.6886Z" fill="#181818" stroke="white" stroke-width="0.3"/>
</svg>
