<svg width="32" height="32" viewBox="0 0 32 32" fill="none" xmlns="http://www.w3.org/2000/svg">
<path d="M15.9935 22.2359V18.8533" stroke="#181818" strokeWidth="1.5" strokeLinecap="round" strokeLinejoin="round"/>
<path fill-rule="evenodd" clip-rule="evenodd" d="M24.2532 7.10693C26.5065 7.10693 28.3199 8.9336 28.3199 11.1869L28.5 16.5C25.22 18.42 20.7065 18.8536 15.9865 18.8536C11.2665 18.8536 6.78 18.92 3.5 17L3.66653 11.1736C3.66653 8.92027 5.4932 7.10693 7.74653 7.10693H24.2532Z" stroke="#181818" strokeWidth="1.5" strokeLinecap="round" strokeLinejoin="round"/>
<path d="M20.6601 7.10117V6.61317C20.6601 4.9865 19.3401 3.6665 17.7135 3.6665H14.2735C12.6468 3.6665 11.3268 4.9865 11.3268 6.61317V7.10117" stroke="#181818" strokeWidth="1.5" strokeLinecap="round" strokeLinejoin="round"/>
<path d="M3.5 17L3.9512 23.9894C4.12187 26.244 6.00054 27.9867 8.26054 27.9867H23.7259C25.9859 27.9867 27.8645 26.244 28.0352 23.9894L28.5 16.5" stroke="#181818" strokeWidth="1.5" strokeLinecap="round" strokeLinejoin="round"/>
</svg>
